<svg width="111" height="122" viewBox="0 0 111 122" fill="none" xmlns="http://www.w3.org/2000/svg">
<path d="M0.499756 1.95499V121.045H17.6896V73.5495V48.548L55.5002 96.045L110.5 26.955L110.5 1.95499L55.4998 71.045L0.499756 1.95499Z" fill="white"/>
<path d="M110.5 121.045L110.5 26.955L55.5002 96.045L17.6896 48.548V73.5495L55.5002 121.045L93.3096 73.5495V121.045H110.5Z" fill="black"/>
<path d="M110.5 1.95499V121.045M110.5 1.95499L110.5 26.955M110.5 1.95499L55.4998 71.045L0.499756 1.95499V121.045H17.6896V73.5495M110.5 26.955L55.5002 96.045L17.6896 48.548V73.5495M110.5 26.955L110.5 121.045M110.5 121.045H93.3096V73.5495L55.5002 121.045L17.6896 73.5495" stroke="white"/>
</svg>
