<svg width="113" height="125" viewBox="0 0 113 125" fill="none" xmlns="http://www.w3.org/2000/svg">
<path d="M1.49072 3.45499V122.545H18.6806V75.0495V50.048L56.4912 97.545L111.491 28.455L111.491 3.45499L56.4907 72.545L1.49072 3.45499Z" fill="white"/>
<path d="M111.491 122.545L111.491 28.455L56.4912 97.545L18.6806 50.048V75.0495L56.4912 122.545L94.3006 75.0495V122.545H111.491Z" fill="black"/>
<path d="M111.491 3.45499V122.545M111.491 3.45499L111.491 28.455M111.491 3.45499L56.4907 72.545L1.49072 3.45499V122.545H18.6806V75.0495M111.491 28.455L56.4912 97.545L18.6806 50.048V75.0495M111.491 28.455L111.491 122.545M111.491 122.545H94.3006V75.0495L56.4912 122.545L18.6806 75.0495" stroke="black" stroke-width="2"/>
</svg>
